<svg width="21" height="20" viewBox="0 0 21 20" fill="none" xmlns="http://www.w3.org/2000/svg">
<path d="M18.0446 0H2.04459C1.04459 0 0.0445862 0.9 0.0445862 2V5.01C0.0445862 5.73 0.474586 6.35 1.04459 6.7V18C1.04459 19.1 2.14459 20 3.04459 20H17.0446C17.9446 20 19.0446 19.1 19.0446 18V6.7C19.6146 6.35 20.0446 5.73 20.0446 5.01V2C20.0446 0.9 19.0446 0 18.0446 0ZM17.0446 18H3.04459V7H17.0446V18ZM18.0446 5H2.04459V2H18.0446V5Z" fill="#888888"/>
<path d="M13.0446 10H7.04459V12H13.0446V10Z" fill="#888888"/>
</svg>
