<svg width="15" height="15" viewBox="0 0 15 15" fill="none" xmlns="http://www.w3.org/2000/svg">
<path d="M10.7708 9.08333H10.1454L9.92375 8.86958C10.6996 7.96708 11.1667 6.79542 11.1667 5.52083C11.1667 2.67875 8.86292 0.375 6.02083 0.375C3.17875 0.375 0.875 2.67875 0.875 5.52083C0.875 8.36292 3.17875 10.6667 6.02083 10.6667C7.29542 10.6667 8.46708 10.1996 9.36958 9.42375L9.58333 9.64542V10.2708L13.5417 14.2213L14.7213 13.0417L10.7708 9.08333ZM6.02083 9.08333C4.04958 9.08333 2.45833 7.49208 2.45833 5.52083C2.45833 3.54958 4.04958 1.95833 6.02083 1.95833C7.99208 1.95833 9.58333 3.54958 9.58333 5.52083C9.58333 7.49208 7.99208 9.08333 6.02083 9.08333Z" fill="white"/>
</svg>
