<svg width="138" height="41" viewBox="0 0 138 41" fill="none" xmlns="http://www.w3.org/2000/svg">
<path d="M6.60227 21L7.77557 17.1023H14.4972L15.6705 21H21.6364L14.9148 0.636363H7.35795L0.636364 21H6.60227ZM9.02841 12.9659L11.0568 6.24432H11.2159L13.2443 12.9659H9.02841ZM23.5977 21H37.359V16.5455H29.1261V0.636363H23.5977V21ZM45.1222 0.636363H39.5938V21H45.1222V0.636363ZM47.7422 21H53.2706V14.9545H56.3331C60.9766 14.9545 64.0888 12.2202 64.0888 7.83523C64.0888 3.5 61.0561 0.636363 56.532 0.636363H47.7422V21ZM53.2706 10.6591V5.05114H55.2195C57.1584 5.05114 58.3217 6.08523 58.3217 7.83523C58.3217 9.57528 57.1584 10.6591 55.2195 10.6591H53.2706ZM66.1172 21H71.6456V14.2784H73.5547L77.1342 21H83.1399L79.0036 13.4034C81.1712 12.3594 82.4638 10.3807 82.4638 7.55682C82.4638 3.22159 79.4311 0.636363 74.907 0.636363H66.1172V21ZM71.6456 9.98295V5.05114H73.5945C75.5334 5.05114 76.6967 5.80682 76.6967 7.55682C76.6967 9.29688 75.5334 9.98295 73.5945 9.98295H71.6456ZM84.8203 21H99.4567V16.5455H90.3487V13.0455H98.7408V8.59091H90.3487V5.09091H99.4964V0.636363H84.8203V21ZM113.216 7H118.505C118.485 3.00284 115.403 0.357954 110.471 0.357954C105.629 0.357954 102.208 2.96307 102.238 6.84091C102.228 10.0227 104.436 11.7926 108.045 12.5682L110.074 13.0057C112.341 13.5028 113.116 14.0696 113.136 14.9943C113.116 15.9986 112.201 16.7045 110.431 16.7045C108.314 16.7045 107.061 15.7102 106.971 13.8409H101.721C101.741 18.9517 105.201 21.2386 110.511 21.2386C115.672 21.2386 118.764 19.0114 118.784 14.9943C118.764 11.892 116.914 9.71449 112.42 8.75L110.75 8.39205C108.821 7.98438 107.956 7.41761 108.005 6.44318C108.015 5.54829 108.761 4.89204 110.471 4.89204C112.261 4.89204 113.106 5.67756 113.216 7ZM131.864 7H137.154C137.134 3.00284 134.051 0.357954 129.12 0.357954C124.277 0.357954 120.857 2.96307 120.887 6.84091C120.877 10.0227 123.084 11.7926 126.694 12.5682L128.722 13.0057C130.989 13.5028 131.765 14.0696 131.784 14.9943C131.765 15.9986 130.85 16.7045 129.08 16.7045C126.962 16.7045 125.709 15.7102 125.62 13.8409H120.37C120.39 18.9517 123.85 21.2386 129.159 21.2386C134.32 21.2386 137.412 19.0114 137.432 14.9943C137.412 11.892 135.563 9.71449 131.069 8.75L129.398 8.39205C127.469 7.98438 126.604 7.41761 126.654 6.44318C126.664 5.54829 127.409 4.89204 129.12 4.89204C130.909 4.89204 131.755 5.67756 131.864 7Z" fill="white"/>
<path d="M55.4588 34.3281C55.2159 32.3125 53.6903 31.1534 51.6705 31.1534C49.3651 31.1534 47.6051 32.7812 47.6051 35.6364C47.6051 38.483 49.3352 40.1193 51.6705 40.1193C53.9077 40.1193 55.2585 38.6321 55.4588 37.0256L53.5923 37.017C53.4176 37.9503 52.6847 38.4872 51.7003 38.4872C50.375 38.4872 49.4759 37.5028 49.4759 35.6364C49.4759 33.821 50.3622 32.7855 51.7131 32.7855C52.723 32.7855 53.4517 33.3693 53.5923 34.3281H55.4588ZM58.1222 40L58.7699 38.0099H61.919L62.5668 40H64.544L61.5355 31.2727H59.1577L56.1449 40H58.1222ZM59.2386 36.5696L60.3125 33.267H60.3807L61.4545 36.5696H59.2386ZM65.5945 40H67.4396V36.9062H68.7862L70.4396 40H72.4766L70.6229 36.608C71.6158 36.1818 72.1655 35.3168 72.1655 34.1236C72.1655 32.3892 71.0192 31.2727 69.0376 31.2727H65.5945V40ZM67.4396 35.4233V32.7812H68.6839C69.7493 32.7812 70.2649 33.2543 70.2649 34.1236C70.2649 34.9886 69.7493 35.4233 68.6925 35.4233H67.4396ZM79.2564 34.0938H81.1314C80.8928 32.3679 79.3714 31.1534 77.3984 31.1534C75.093 31.1534 73.3161 32.8153 73.3161 35.6449C73.3161 38.4062 74.978 40.1193 77.4368 40.1193C79.6399 40.1193 81.2124 38.7259 81.2124 36.429V35.3295H77.5604V36.7188H79.4354C79.4098 37.8011 78.6726 38.4872 77.4453 38.4872C76.0604 38.4872 75.1868 37.4517 75.1868 35.6278C75.1868 33.8125 76.0945 32.7855 77.4283 32.7855C78.3786 32.7855 79.022 33.2756 79.2564 34.0938ZM90.6183 35.6364C90.6183 32.7812 88.8455 31.1534 86.5316 31.1534C84.2049 31.1534 82.445 32.7812 82.445 35.6364C82.445 38.4787 84.2049 40.1193 86.5316 40.1193C88.8455 40.1193 90.6183 38.4915 90.6183 35.6364ZM88.7475 35.6364C88.7475 37.4858 87.8697 38.4872 86.5316 38.4872C85.1893 38.4872 84.3157 37.4858 84.3157 35.6364C84.3157 33.7869 85.1893 32.7855 86.5316 32.7855C87.8697 32.7855 88.7475 33.7869 88.7475 35.6364Z" fill="white"/>
</svg>
